STARTFONT 2.1
FONT jis.jis8800.16
SIZE 16 72 72
FONTBOUNDINGBOX 16 16 0 -2
STARTPROPERTIES 4
FONT_DESCENT 2
FONT_ASCENT 14
DEFAULT_CHAR 5
COPYRIGHT "Copyright (c) 1992 AT&T - All rights reserved."
ENDPROPERTIES
CHARS 153
STARTCHAR ch-5
ENCODING 5
SWIDTH 1000 0
DWIDTH 16 0
BBX 16 16 0 -2
BITMAP
2000
23fe
2252
fa52
abde
a850
a950
ab5e
aa52
fa52
23de
2a52
2a52
7bde
c841
003f
ENDCHAR
STARTCHAR ch-13
ENCODING 13
SWIDTH 1000 0
DWIDTH 16 0
BBX 16 16 0 -2
BITMAP
23c8
2248
225f
fbd1
aa75
aa46
abc4
a904
fbe4
2224
27ae
2a2a
2aaa
79aa
c86b
00d9
ENDCHAR
STARTCHAR ch-14
ENCODING 14
SWIDTH 1000 0
DWIDTH 16 0
BBX 16 16 0 -2
BITMAP
2088
27ff
2088
f820
abfe
a850
a888
ab26
a8f8
f820
2084
27ff
2884
7884
c984
0304
ENDCHAR
STARTCHAR ch-15
ENCODING 15
SWIDTH 1000 0
DWIDTH 16 0
BBX 16 16 0 -2
BITMAP
2100
23df
2645
f885
abed
aaa9
aabb
abe0
aaaa
faaf
23ea
2a22
2a2f
7a22
ca22
0462
ENDCHAR
STARTCHAR ch-17
ENCODING 17
SWIDTH 1000 0
DWIDTH 16 0
BBX 16 16 0 -2
BITMAP
2104
2555
2555
fa8a
ac51
a800
abfe
aa02
f820
27ff
20a8
28a8
39ac
6b26
c623
0020
ENDCHAR
STARTCHAR ch-21
ENCODING 21
SWIDTH 1000 0
DWIDTH 16 0
BBX 16 16 0 -2
BITMAP
2000
21fe
2020
fbff
aa21
abad
aa21
a9ac
a800
fbff
2020
29fe
2952
7952
c952
0156
ENDCHAR
STARTCHAR ch-22
ENCODING 22
SWIDTH 1000 0
DWIDTH 16 0
BBX 16 16 0 -2
BITMAP
2048
23ff
2048
f890
a9ff
ab10
a9fe
a910
a9fe
f910
21ff
2800
2bfe
7884
c878
0387
ENDCHAR
STARTCHAR ch-33
ENCODING 33
SWIDTH 1000 0
DWIDTH 16 0
BBX 16 16 0 -2
BITMAP
0400
0ff0
0820
ffff
0600
390c
0698
3960
0658
79c6
1010
7e7e
5252
7e7e
1414
fafb
ENDCHAR
STARTCHAR ch-34
ENCODING 34
SWIDTH 1000 0
DWIDTH 16 0
BBX 16 16 0 -2
BITMAP
0100
7ffe
0200
3ffc
0420
ffff
0810
3ffc
c813
0ff0
1010
7e7e
5252
7e7e
1414
fafb
ENDCHAR
STARTCHAR ch-35
ENCODING 35
SWIDTH 1000 0
DWIDTH 16 0
BBX 16 16 0 -2
BITMAP
2000
23ff
2244
fbff
aa44
aafe
aa92
aafe
fa92
22fe
2a10
2aff
7a95
ca9d
04b5
0083
ENDCHAR
STARTCHAR ch-39
ENCODING 39
SWIDTH 1000 0
DWIDTH 16 0
BBX 16 16 0 -2
BITMAP
0100
7ffe
0100
1ff8
0000
7ffe
4402
1ffc
7404
07fc
1010
7e7e
5252
7e7e
1414
fafb
ENDCHAR
STARTCHAR ch-49
ENCODING 49
SWIDTH 1000 0
DWIDTH 16 0
BBX 16 16 0 -2
BITMAP
0100
0ff0
0910
0ff0
0108
3ff4
1010
7e7e
5252
7e7e
1414
fafb
0000
3ffc
2444
ffff
ENDCHAR
STARTCHAR ch-54
ENCODING 54
SWIDTH 1000 0
DWIDTH 16 0
BBX 16 16 0 -2
BITMAP
7e7e
2424
ff7f
1414
2625
ffff
2004
3ffc
2004
3ffc
1010
7e7e
5252
7e7e
1414
fafb
ENDCHAR
STARTCHAR ch-57
ENCODING 57
SWIDTH 1000 0
DWIDTH 16 0
BBX 16 16 0 -2
BITMAP
0100
7ffe
0100
1ff8
1108
7ffe
4402
1ffc
7404
07fc
1010
7e7e
5252
7e7e
1414
fafb
ENDCHAR
STARTCHAR ch-59
ENCODING 59
SWIDTH 1000 0
DWIDTH 16 0
BBX 16 16 0 -2
BITMAP
2104
47e8
d01a
23c4
4809
fbdf
2004
abd5
aa55
23c4
0100
3ffc
2104
3ffc
0102
fffd
ENDCHAR
STARTCHAR ch-64
ENCODING 64
SWIDTH 1000 0
DWIDTH 16 0
BBX 16 16 0 -2
BITMAP
0100
0300
0200
3ffc
2444
2444
2444
2444
2444
2444
2444
2444
2444
2444
ffff
0000
ENDCHAR
STARTCHAR ch-66
ENCODING 66
SWIDTH 1000 0
DWIDTH 16 0
BBX 16 16 0 -2
BITMAP
0800
18fe
1012
7f12
5512
5552
5552
5532
5522
5532
552a
57e6
7c43
c0c6
0184
031c
ENDCHAR
STARTCHAR ch-68
ENCODING 68
SWIDTH 1000 0
DWIDTH 16 0
BBX 16 16 0 -2
BITMAP
0800
18fc
1024
7f24
5524
5524
5524
55ff
5524
5524
5524
57a4
7c24
c024
00ff
0000
ENDCHAR
STARTCHAR ch-70
ENCODING 70
SWIDTH 1000 0
DWIDTH 16 0
BBX 16 16 0 -2
BITMAP
0080
0100
3ffc
2444
2444
ffff
0040
10c4
318c
6f58
c160
1130
3118
610c
c107
0100
ENDCHAR
STARTCHAR ch-76
ENCODING 76
SWIDTH 1000 0
DWIDTH 16 0
BBX 16 16 0 -2
BITMAP
0800
19fe
3000
6000
c000
0800
1bff
3008
7008
d008
1008
1008
1008
1008
1008
1038
ENDCHAR
STARTCHAR ch-77
ENCODING 77
SWIDTH 1000 0
DWIDTH 16 0
BBX 16 16 0 -2
BITMAP
1000
331e
2180
6080
c000
163f
3304
2104
6004
e084
2084
2184
2104
2304
2204
261c
ENDCHAR
STARTCHAR ch-82
ENCODING 82
SWIDTH 1000 0
DWIDTH 16 0
BBX 16 16 0 -2
BITMAP
1100
311f
6100
cfe0
0100
131f
3244
6cc4
e684
2184
2304
2244
2644
25e4
2f24
200c
ENDCHAR
STARTCHAR ch-83
ENCODING 83
SWIDTH 1000 0
DWIDTH 16 0
BBX 16 16 0 -2
BITMAP
1140
316e
2120
6100
cfe0
111f
3104
2544
6544
e544
2544
2d64
2924
2104
2104
200c
ENDCHAR
STARTCHAR ch-87
ENCODING 87
SWIDTH 1000 0
DWIDTH 16 0
BBX 16 16 0 -2
BITMAP
1100
311e
2fe0
6100
c100
0fe0
101f
3104
6104
efe4
2104
2104
2104
21e4
2f04
201c
ENDCHAR
STARTCHAR ch-89
ENCODING 89
SWIDTH 1000 0
DWIDTH 16 0
BBX 16 16 0 -2
BITMAP
1000
37df
6100
c100
07c0
1240
325f
6244
eff4
2004
27e4
2424
2424
2424
27e4
200c
ENDCHAR
STARTCHAR ch-91
ENCODING 91
SWIDTH 1000 0
DWIDTH 16 0
BBX 16 16 0 -2
BITMAP
1100
37ef
6220
c220
0ff0
1000
37ef
6422
e7e2
2042
2ff2
2242
2242
3ffa
2042
2046
ENDCHAR
STARTCHAR ch-93
ENCODING 93
SWIDTH 1000 0
DWIDTH 16 0
BBX 16 16 0 -2
BITMAP
10c0
379e
2100
6fe0
c100
17c0
355f
27c4
6544
e7c4
2104
27c4
2104
21e4
2f04
200c
ENDCHAR
STARTCHAR ch-94
ENCODING 94
SWIDTH 1000 0
DWIDTH 16 0
BBX 16 16 0 -2
BITMAP
1100
37ef
6220
cff0
0000
17ef
3422
67e2
e002
2ff2
2102
27e2
2522
2522
2562
2106
ENDCHAR
STARTCHAR ch-97
ENCODING 97
SWIDTH 1000 0
DWIDTH 16 0
BBX 16 16 0 -2
BITMAP
1200
33de
2640
6c80
c7c0
155f
3544
27c4
6544
e544
27c4
2104
2fe4
2284
26c4
2c6c
ENDCHAR
STARTCHAR ch-98
ENCODING 98
SWIDTH 1000 0
DWIDTH 16 0
BBX 16 16 0 -2
BITMAP
1770
3557
6770
c550
0770
1557
3772
6222
e242
27f2
2c82
37e2
2482
27e2
2482
27f6
ENDCHAR
STARTCHAR ch-99
ENCODING 99
SWIDTH 1000 0
DWIDTH 16 0
BBX 16 16 0 -2
BITMAP
0100
0100
0100
ffff
0280
0682
0cc6
184c
3878
e820
0830
0810
0818
0b8c
1e06
7003
ENDCHAR
STARTCHAR ch-104
ENCODING 104
SWIDTH 1000 0
DWIDTH 16 0
BBX 16 16 0 -2
BITMAP
0100
0100
7ffe
0100
3ffc
0100
0100
ffff
0640
0c42
3866
e82c
0830
0818
0f0c
7807
ENDCHAR
STARTCHAR ch-107
ENCODING 107
SWIDTH 1000 0
DWIDTH 16 0
BBX 16 16 0 -2
BITMAP
1004
100c
1018
fc30
04e2
0c06
180c
1218
3430
78e1
d403
1206
100c
1018
1070
11c0
ENDCHAR
STARTCHAR ch-112
ENCODING 112
SWIDTH 1000 0
DWIDTH 16 0
BBX 16 16 0 -2
BITMAP
0100
0100
7ffe
0000
1ff8
1008
ffff
1008
1ffa
0486
0ccc
3858
e860
0830
0f1c
7807
ENDCHAR
STARTCHAR ch-114
ENCODING 114
SWIDTH 1000 0
DWIDTH 16 0
BBX 16 16 0 -2
BITMAP
1010
1010
1010
fdff
0511
0d11
1939
1129
3529
796d
d545
1101
1101
1101
1101
1107
ENDCHAR
STARTCHAR ch-117
ENCODING 117
SWIDTH 1000 0
DWIDTH 16 0
BBX 16 16 0 -2
BITMAP
1000
10fe
1082
fc82
0482
0c82
1882
12fe
3482
7882
d482
1282
1082
1082
10fe
1000
ENDCHAR
STARTCHAR ch-119
ENCODING 119
SWIDTH 1000 0
DWIDTH 16 0
BBX 16 16 0 -2
BITMAP
0100
0100
ffff
0100
3ffc
2104
2104
2104
3ffc
0282
0cc6
384c
e868
0830
0f1c
7807
ENDCHAR
STARTCHAR ch-125
ENCODING 125
SWIDTH 1000 0
DWIDTH 16 0
BBX 16 16 0 -2
BITMAP
1006
101c
10f0
fc10
0410
0c10
1810
11ff
3410
7810
d410
1210
1010
1010
10fe
1000
ENDCHAR
STARTCHAR ch-126
ENCODING 126
SWIDTH 1000 0
DWIDTH 16 0
BBX 16 16 0 -2
BITMAP
0100
0380
0ee0
3838
e7cf
0000
1ff0
0020
0040
0100
ffff
0444
1868
e830
0f1c
7807
ENDCHAR
STARTCHAR ch-127
ENCODING 127
SWIDTH 1000 0
DWIDTH 16 0
BBX 16 16 0 -2
BITMAP
1010
1038
1028
fc6c
0444
0cc6
19bb
1000
3600
787c
d404
1204
100c
1008
1018
1010
ENDCHAR
STARTCHAR ch-129
ENCODING 129
SWIDTH 1000 0
DWIDTH 16 0
BBX 16 16 0 -2
BITMAP
0100
0100
3ffc
0100
ffff
0000
1ff8
1008
1008
1ff8
0482
0cc6
386c
e830
0f1c
3807
ENDCHAR
STARTCHAR ch-130
ENCODING 130
SWIDTH 1000 0
DWIDTH 16 0
BBX 16 16 0 -2
BITMAP
1020
1020
1020
fdfc
0424
0c24
1824
1024
35ff
7850
d450
1258
10c8
108c
1186
1303
ENDCHAR
STARTCHAR ch-136
ENCODING 136
SWIDTH 1000 0
DWIDTH 16 0
BBX 16 16 0 -2
BITMAP
0800
083e
ff22
1122
1122
3122
673e
c000
0100
ffff
0484
18cc
e868
0830
0f1c
7807
ENDCHAR
STARTCHAR ch-139
ENCODING 139
SWIDTH 1000 0
DWIDTH 16 0
BBX 16 16 0 -2
BITMAP
0848
1844
17fe
3040
7060
d032
101a
110e
0100
ffff
0240
0c62
3834
e818
0f0c
3807
ENDCHAR
STARTCHAR ch-141
ENCODING 141
SWIDTH 1000 0
DWIDTH 16 0
BBX 16 16 0 -2
BITMAP
1080
1080
10fe
fd82
0502
0df2
1b12
1012
3412
78f6
d484
128c
1080
1081
10c3
107e
ENDCHAR
STARTCHAR ch-146
ENCODING 146
SWIDTH 1000 0
DWIDTH 16 0
BBX 16 16 0 -2
BITMAP
1000
10fc
1084
fc84
0484
0c84
18fc
1284
3484
7884
d484
12fc
1000
1000
13ff
1000
ENDCHAR
STARTCHAR ch-150
ENCODING 150
SWIDTH 1000 0
DWIDTH 16 0
BBX 16 16 0 -2
BITMAP
1010
1010
1010
fc10
05ff
0d11
1911
1311
3511
79ff
d511
1511
1111
1111
11ff
1000
ENDCHAR
STARTCHAR ch-151
ENCODING 151
SWIDTH 1000 0
DWIDTH 16 0
BBX 16 16 0 -2
BITMAP
1010
1038
1028
fc6c
04c6
0d93
1830
1264
34cc
7818
d431
12e3
1006
100c
1038
10e0
ENDCHAR
STARTCHAR ch-153
ENCODING 153
SWIDTH 1000 0
DWIDTH 16 0
BBX 16 16 0 -2
BITMAP
1010
1030
1020
fcfe
0482
0c82
1882
1282
34fe
7882
d482
1282
1082
1082
10fe
1000
ENDCHAR
STARTCHAR ch-158
ENCODING 158
SWIDTH 1000 0
DWIDTH 16 0
BBX 16 16 0 -2
BITMAP
0100
0100
ffff
0810
381c
e007
1ff8
1008
1008
1ff8
0482
0cc6
386c
e830
0f1c
3807
ENDCHAR
STARTCHAR ch-162
ENCODING 162
SWIDTH 1000 0
DWIDTH 16 0
BBX 16 16 0 -2
BITMAP
1010
1111
1193
fc92
0410
0cfe
1810
1210
3410
79ff
d410
1210
1010
1010
1010
1010
ENDCHAR
STARTCHAR ch-164
ENCODING 164
SWIDTH 1000 0
DWIDTH 16 0
BBX 16 16 0 -2
BITMAP
0100
ffff
0000
3ff8
0230
0140
ffff
0282
0c84
7380
0100
0386
0ecc
f870
0f1c
7807
ENDCHAR
STARTCHAR ch-171
ENCODING 171
SWIDTH 1000 0
DWIDTH 16 0
BBX 16 16 0 -2
BITMAP
2010
2010
2010
f9ff
0911
1912
3110
25fe
6942
b166
2924
293c
2318
223c
2666
20c3
ENDCHAR
STARTCHAR ch-174
ENCODING 174
SWIDTH 1000 0
DWIDTH 16 0
BBX 16 16 0 -2
BITMAP
1080
1080
1080
fdff
0510
0f10
1810
1010
3492
7892
d492
1193
1111
1010
1010
1070
ENDCHAR
STARTCHAR ch-176
ENCODING 176
SWIDTH 1000 0
DWIDTH 16 0
BBX 16 16 0 -2
BITMAP
0000
1ff8
1108
1088
ffff
2208
2108
3ffe
0010
0130
ffff
0244
0c68
f830
0f9c
3807
ENDCHAR
STARTCHAR ch-177
ENCODING 177
SWIDTH 1000 0
DWIDTH 16 0
BBX 16 16 0 -2
BITMAP
2088
208a
208b
f989
0908
1b7f
3508
2108
6908
b11c
2914
2514
2114
2136
2122
2163
ENDCHAR
STARTCHAR ch-180
ENCODING 180
SWIDTH 1000 0
DWIDTH 16 0
BBX 16 16 0 -2
BITMAP
1010
1010
11ff
fc28
0444
0d83
187c
1200
35ff
7820
d440
12fe
1002
1002
1006
101c
ENDCHAR
STARTCHAR ch-181
ENCODING 181
SWIDTH 1000 0
DWIDTH 16 0
BBX 16 16 0 -2
BITMAP
2086
208c
20b8
f988
0908
1b08
3508
217f
6908
b108
2908
2508
2108
2108
213e
2100
ENDCHAR
STARTCHAR ch-183
ENCODING 183
SWIDTH 1000 0
DWIDTH 16 0
BBX 16 16 0 -2
BITMAP
1010
1038
1028
fc6c
04c6
0d83
1800
127c
3600
7c00
d6fe
1282
1082
1082
1082
10fe
ENDCHAR
STARTCHAR ch-191
ENCODING 191
SWIDTH 1000 0
DWIDTH 16 0
BBX 16 16 0 -2
BITMAP
1010
1010
10fe
fc10
0410
0c10
19ff
1200
3410
7810
d4fe
1210
1010
1010
11ff
1000
ENDCHAR
STARTCHAR ch-193
ENCODING 193
SWIDTH 1000 0
DWIDTH 16 0
BBX 16 16 0 -2
BITMAP
0820
0824
7f26
0822
0820
ffff
0020
0832
ff96
1014
291c
6a08
a41d
2235
3967
60c2
ENDCHAR
STARTCHAR ch-194
ENCODING 194
SWIDTH 1000 0
DWIDTH 16 0
BBX 16 16 0 -2
BITMAP
0002
7f92
0812
1f12
3112
6b12
0602
1c02
710e
0100
ffff
0284
0ec8
f870
0f1c
3807
ENDCHAR
STARTCHAR ch-195
ENCODING 195
SWIDTH 1000 0
DWIDTH 16 0
BBX 16 16 0 -2
BITMAP
1020
1020
103e
fc20
0420
0dff
1800
1200
35ff
7820
d420
123c
1026
1020
1020
1020
ENDCHAR
STARTCHAR ch-196
ENCODING 196
SWIDTH 1000 0
DWIDTH 16 0
BBX 16 16 0 -2
BITMAP
2080
209e
2100
f900
0a00
1880
30bf
2104
6904
b304
2904
2104
2104
2104
2104
211c
ENDCHAR
STARTCHAR ch-197
ENCODING 197
SWIDTH 1000 0
DWIDTH 16 0
BBX 16 16 0 -2
BITMAP
0820
4820
6fff
2820
0820
3820
ebfe
0800
0100
ffff
0284
0ccc
f868
0830
0f1c
7807
ENDCHAR
STARTCHAR ch-207
ENCODING 207
SWIDTH 1000 0
DWIDTH 16 0
BBX 16 16 0 -2
BITMAP
0100
ffff
0000
1ff8
1108
1ff8
1108
1ff8
0100
3ffc
0100
ffff
0482
f864
0f38
380f
ENDCHAR
STARTCHAR ch-212
ENCODING 212
SWIDTH 1000 0
DWIDTH 16 0
BBX 16 16 0 -2
BITMAP
0100
0100
ffff
0444
1868
e830
0f1c
7807
0000
7ffe
4422
483e
77e2
4422
47e2
400e
ENDCHAR
STARTCHAR ch-213
ENCODING 213
SWIDTH 1000 0
DWIDTH 16 0
BBX 16 16 0 -2
BITMAP
1044
1044
10c6
fd93
0438
0c6c
18c6
1183
3400
78fe
d482
1282
1082
1082
1082
10fe
ENDCHAR
STARTCHAR ch-216
ENCODING 216
SWIDTH 1000 0
DWIDTH 16 0
BBX 16 16 0 -2
BITMAP
0110
0108
ffff
0100
310c
19b8
0560
1d38
700e
0100
ffff
0444
1868
e830
0f1c
7807
ENDCHAR
STARTCHAR ch-217
ENCODING 217
SWIDTH 1000 0
DWIDTH 16 0
BBX 16 16 0 -2
BITMAP
1000
11fc
1024
fc24
07ff
0c24
1824
11fc
3440
7840
d4fe
1142
1242
1042
1042
107e
ENDCHAR
STARTCHAR ch-220
ENCODING 220
SWIDTH 1000 0
DWIDTH 16 0
BBX 16 16 0 -2
BITMAP
1014
1012
11ff
fc10
0410
0cfe
1892
1292
34fe
7892
d492
12fe
1092
1092
1092
1096
ENDCHAR
STARTCHAR ch-221
ENCODING 221
SWIDTH 1000 0
DWIDTH 16 0
BBX 16 16 0 -2
BITMAP
4410
4410
7dff
0410
fc10
2410
64fe
c400
0100
ffff
0284
0ccc
f868
0830
0f1c
7807
ENDCHAR
STARTCHAR ch-223
ENCODING 223
SWIDTH 1000 0
DWIDTH 16 0
BBX 16 16 0 -2
BITMAP
6020
3124
0126
c323
6624
00ec
1818
7070
c3c0
0100
ffff
0484
1cd8
f060
1e38
700f
ENDCHAR
STARTCHAR ch-225
ENCODING 225
SWIDTH 1000 0
DWIDTH 16 0
BBX 16 16 0 -2
BITMAP
1000
10fe
1092
fc92
04fe
0c92
1892
12fe
3410
7810
d4fe
1210
1010
1010
11ff
1000
ENDCHAR
STARTCHAR ch-232
ENCODING 232
SWIDTH 1000 0
DWIDTH 16 0
BBX 16 16 0 -2
BITMAP
1010
1020
11fe
fd22
0522
0dfe
1922
1122
35fe
7890
d510
13ff
1010
1010
1010
1010
ENDCHAR
STARTCHAR ch-242
ENCODING 242
SWIDTH 1000 0
DWIDTH 16 0
BBX 16 16 0 -2
BITMAP
2000
27ff
2020
f820
0bfe
1a22
3222
23ba
6aaa
b2aa
2aaa
2376
2222
2222
2222
2226
ENDCHAR
STARTCHAR ch-243
ENCODING 243
SWIDTH 1000 0
DWIDTH 16 0
BBX 16 16 0 -2
BITMAP
2104
1108
7ffe
4002
4ff2
0810
0810
0ff0
0100
ffff
0484
0ccc
3868
e830
0f1c
3807
ENDCHAR
STARTCHAR ch-244
ENCODING 244
SWIDTH 1000 0
DWIDTH 16 0
BBX 16 16 0 -2
BITMAP
0420
0420
fc3f
0420
7c3e
0420
fc3f
0820
3120
0100
ffff
0444
1868
e830
0f1c
7807
ENDCHAR
STARTCHAR ch-248
ENCODING 248
SWIDTH 1000 0
DWIDTH 16 0
BBX 16 16 0 -2
BITMAP
1000
11fe
1122
fd22
05fe
0d22
1922
11fe
3420
7bff
d4a8
14ac
11a4
1126
1323
1020
ENDCHAR
STARTCHAR ch-249
ENCODING 249
SWIDTH 1000 0
DWIDTH 16 0
BBX 16 16 0 -2
BITMAP
0100
ffff
0000
1ff8
1108
1ff8
1108
1ff8
0100
ffff
1288
64c4
186b
e830
0f9c
3807
ENDCHAR
STARTCHAR ch-252
ENCODING 252
SWIDTH 1000 0
DWIDTH 16 0
BBX 16 16 0 -2
BITMAP
1000
10fc
1084
fc84
04fc
0c84
1884
12fc
3440
78ff
d595
1325
1049
1193
1022
10ce
ENDCHAR
STARTCHAR ch-253
ENCODING 253
SWIDTH 1000 0
DWIDTH 16 0
BBX 16 16 0 -2
BITMAP
2802
3f22
4822
ffa2
0822
7f22
4902
4902
4b0e
0080
ffff
0244
0c68
f830
0f1c
3807
ENDCHAR
STARTCHAR ch-254
ENCODING 254
SWIDTH 1000 0
DWIDTH 16 0
BBX 16 16 0 -2
BITMAP
2000
21fe
2102
f902
09fe
1910
1110
35ff
2910
7110
a97e
2942
2342
2242
2642
207e
ENDCHAR
STARTCHAR ch-258
ENCODING 258
SWIDTH 1000 0
DWIDTH 16 0
BBX 16 16 0 -2
BITMAP
2084
2084
23e4
f884
0884
1884
37f6
2005
6885
b084
2be4
2084
2084
20f4
2784
2004
ENDCHAR
STARTCHAR ch-260
ENCODING 260
SWIDTH 1000 0
DWIDTH 16 0
BBX 16 16 0 -2
BITMAP
2020
2020
23ff
f820
09fe
1822
33ff
2022
69fe
b020
2bff
2044
208c
21f8
202e
23c3
ENDCHAR
STARTCHAR ch-263
ENCODING 263
SWIDTH 1000 0
DWIDTH 16 0
BBX 16 16 0 -2
BITMAP
1080
1080
11ff
fd00
07fc
0c84
18fc
1284
34fc
7840
d4fc
1184
136c
1038
106c
11c7
ENDCHAR
STARTCHAR ch-266
ENCODING 266
SWIDTH 1000 0
DWIDTH 16 0
BBX 16 16 0 -2
BITMAP
2000
27ff
2000
fbfe
0a02
1202
33fe
2200
6afe
b2aa
2aaa
22fe
26aa
24aa
2caa
2086
ENDCHAR
STARTCHAR ch-268
ENCODING 268
SWIDTH 1000 0
DWIDTH 16 0
BBX 16 16 0 -2
BITMAP
2000
23ff
2201
fa21
09fe
1820
31fe
2522
69fe
b122
2922
25fe
2020
23ff
2020
2020
ENDCHAR
STARTCHAR ch-272
ENCODING 272
SWIDTH 1000 0
DWIDTH 16 0
BBX 16 16 0 -2
BITMAP
21fc
2104
2104
f9fc
0904
1904
11fc
3480
68ff
b181
2b31
25e1
2101
2113
20f2
200e
ENDCHAR
STARTCHAR ch-274
ENCODING 274
SWIDTH 1000 0
DWIDTH 16 0
BBX 16 16 0 -2
BITMAP
0100
0100
ffff
0800
19fc
3104
61fc
a020
27ff
2124
2623
0108
0e90
f860
0f38
380f
ENDCHAR
STARTCHAR ch-275
ENCODING 275
SWIDTH 1000 0
DWIDTH 16 0
BBX 16 16 0 -2
BITMAP
2080
20be
20a2
f9a2
0922
1b3e
3508
2108
697f
b108
291c
251c
212a
212a
2149
2108
ENDCHAR
STARTCHAR ch-285
ENCODING 285
SWIDTH 1000 0
DWIDTH 16 0
BBX 16 16 0 -2
BITMAP
2242
2366
2124
f9fc
0924
1924
31fc
2124
6924
b1fc
2820
2020
27ff
2020
2020
2020
ENDCHAR
STARTCHAR ch-286
ENCODING 286
SWIDTH 1000 0
DWIDTH 16 0
BBX 16 16 0 -2
BITMAP
1000
10fc
1084
fc84
04fc
0c84
1884
12fc
3400
79fe
d552
1152
1152
1152
13ff
1000
ENDCHAR
STARTCHAR ch-293
ENCODING 293
SWIDTH 1000 0
DWIDTH 16 0
BBX 16 16 0 -2
BITMAP
2000
23ff
2200
fa7e
0a00
1aff
3252
2254
6a48
b264
2ac3
2204
22ff
2244
2464
202c
ENDCHAR
STARTCHAR ch-298
ENCODING 298
SWIDTH 1000 0
DWIDTH 16 0
BBX 16 16 0 -2
BITMAP
2000
223e
2322
f922
083e
1822
3022
273e
6929
b12a
292c
2124
2136
2363
2280
267f
ENDCHAR
STARTCHAR ch-299
ENCODING 299
SWIDTH 1000 0
DWIDTH 16 0
BBX 16 16 0 -2
BITMAP
2006
201c
23f0
fa1e
0a10
1aff
3291
229c
6af1
b29f
2a80
22a4
22a4
24a5
2165
2043
ENDCHAR
STARTCHAR ch-310
ENCODING 310
SWIDTH 1000 0
DWIDTH 16 0
BBX 16 16 0 -2
BITMAP
2000
27df
2249
f945
08c3
1945
3249
2020
6840
b1fe
2902
2102
21fe
2102
2102
21fe
ENDCHAR
STARTCHAR ch-312
ENCODING 312
SWIDTH 1000 0
DWIDTH 16 0
BBX 16 16 0 -2
BITMAP
2020
21fe
2122
fbff
0922
19fe
3020
21fe
6922
b1fe
2820
23ff
2082
21c4
207c
23c7
ENDCHAR
STARTCHAR ch-315
ENCODING 315
SWIDTH 1000 0
DWIDTH 16 0
BBX 16 16 0 -2
BITMAP
0100
ffff
0810
7f10
087c
ff94
2254
cbb4
3e25
0853
ff80
0106
0fcc
f870
0f1c
7807
ENDCHAR
STARTCHAR ch-321
ENCODING 321
SWIDTH 1000 0
DWIDTH 16 0
BBX 16 16 0 -2
BITMAP
2010
27b2
20a2
f8ff
0889
1b88
323e
222a
6a2a
b3aa
28be
2088
208a
218a
211f
2771
ENDCHAR
STARTCHAR ch-323
ENCODING 323
SWIDTH 1000 0
DWIDTH 16 0
BBX 16 16 0 -2
BITMAP
0100
ffff
0000
0c7c
7844
407c
7c10
41ff
4054
7c92
0111
038c
0ed8
f870
0f1c
7807
ENDCHAR
STARTCHAR ch-324
ENCODING 324
SWIDTH 1000 0
DWIDTH 16 0
BBX 16 16 0 -2
BITMAP
0100
0100
ffff
0810
381c
e427
1ff8
0420
1ffc
0420
ffff
0484
18c8
e870
0f1c
3807
ENDCHAR
STARTCHAR ch-332
ENCODING 332
SWIDTH 1000 0
DWIDTH 16 0
BBX 16 16 0 -2
BITMAP
23de
2252
23de
f800
09fc
1924
3124
21fc
6924
b124
29fc
2020
27ff
2020
2020
2020
ENDCHAR
STARTCHAR ch-333
ENCODING 333
SWIDTH 1000 0
DWIDTH 16 0
BBX 16 16 0 -2
BITMAP
1044
1048
10ff
fd90
04fe
0c90
18fe
1290
34ff
7810
d5ff
1254
1054
10d6
1193
1010
ENDCHAR
STARTCHAR ch-342
ENCODING 342
SWIDTH 1000 0
DWIDTH 16 0
BBX 16 16 0 -2
BITMAP
2020
2040
23fe
fa02
0aaa
1a22
12fa
3272
6aaa
f222
2a42
27ff
2050
20d8
218c
2707
ENDCHAR
STARTCHAR ch-350
ENCODING 350
SWIDTH 1000 0
DWIDTH 16 0
BBX 16 16 0 -2
BITMAP
0008
3f7f
2122
3f14
207f
7f08
517f
d108
1f08
0080
ffff
0244
0c68
f830
0f9c
3807
ENDCHAR
STARTCHAR ch-351
ENCODING 351
SWIDTH 1000 0
DWIDTH 16 0
BBX 16 16 0 -2
BITMAP
2088
2088
27ff
f888
09dc
1aaa
1489
2000
69fc
b000
2bfe
2020
2124
2326
2623
2060
ENDCHAR
STARTCHAR ch-352
ENCODING 352
SWIDTH 1000 0
DWIDTH 16 0
BBX 16 16 0 -2
BITMAP
2122
21a6
20a4
fbff
0a01
1afd
3084
20fc
6800
b1fe
2922
2122
21fe
2122
2122
21fe
ENDCHAR
STARTCHAR ch-356
ENCODING 356
SWIDTH 1000 0
DWIDTH 16 0
BBX 16 16 0 -2
BITMAP
2004
23e4
2284
fa8f
0be8
1a20
33e0
228f
6a80
b3e0
2800
21fe
2152
2152
2152
23ff
ENDCHAR
STARTCHAR ch-358
ENCODING 358
SWIDTH 1000 0
DWIDTH 16 0
BBX 16 16 0 -2
BITMAP
2000
21fe
2020
fbff
0a21
1bad
3221
21ac
6800
b3ff
2820
23ff
2249
2249
2249
224b
ENDCHAR
STARTCHAR ch-362
ENCODING 362
SWIDTH 1000 0
DWIDTH 16 0
BBX 16 16 0 -2
BITMAP
2088
27ff
2088
f800
0bfe
1a92
33fe
2004
6812
b3ff
2a10
2214
23cc
2219
2635
2ce3
ENDCHAR
STARTCHAR ch-365
ENCODING 365
SWIDTH 1000 0
DWIDTH 16 0
BBX 16 16 0 -2
BITMAP
2100
213f
2108
ffde
0912
1912
37de
2012
6812
b3de
2a52
2252
225e
23c0
2012
2021
ENDCHAR
STARTCHAR ch-367
ENCODING 367
SWIDTH 1000 0
DWIDTH 16 0
BBX 16 16 0 -2
BITMAP
2100
213e
27e2
faa2
0abe
1aa2
37e2
213e
6922
b7e2
293e
2394
2554
2935
2125
2163
ENDCHAR
STARTCHAR ch-370
ENCODING 370
SWIDTH 1000 0
DWIDTH 16 0
BBX 16 16 0 -2
BITMAP
0820
7f3f
2220
ffbe
2202
3e3e
2220
3e3e
2221
261f
0100
ffff
0484
f848
0f30
380f
ENDCHAR
STARTCHAR ch-372
ENCODING 372
SWIDTH 1000 0
DWIDTH 16 0
BBX 16 16 0 -2
BITMAP
23de
2252
23de
fa52
0bde
1a22
32fa
2222
6afa
b2aa
2afa
22aa
22fa
2272
22aa
2226
ENDCHAR
STARTCHAR ch-375
ENCODING 375
SWIDTH 1000 0
DWIDTH 16 0
BBX 16 16 0 -2
BITMAP
1121
11b3
1092
fdff
0444
0c44
18c6
119b
3470
7810
d4fe
1010
11ff
1010
1010
1070
ENDCHAR
STARTCHAR ch-382
ENCODING 382
SWIDTH 1000 0
DWIDTH 16 0
BBX 16 16 0 -2
BITMAP
0000
ffff
0420
0420
0420
7ffe
4422
4422
4422
4422
4422
47e2
4002
4002
4002
4002
ENDCHAR
STARTCHAR ch-383
ENCODING 383
SWIDTH 1000 0
DWIDTH 16 0
BBX 16 16 0 -2
BITMAP
0000
ffff
0440
0440
0440
7ffe
4442
4442
4c42
5862
703e
4002
4002
4002
7ffe
0000
ENDCHAR
STARTCHAR ch-385
ENCODING 385
SWIDTH 1000 0
DWIDTH 16 0
BBX 16 16 0 -2
BITMAP
0000
ffff
0440
3ffc
2444
2444
2444
3ffc
0200
ffff
0410
0830
1f60
01c0
0778
7c0e
ENDCHAR
STARTCHAR ch-387
ENCODING 387
SWIDTH 1000 0
DWIDTH 16 0
BBX 16 16 0 -2
BITMAP
0000
ffff
0440
3ffc
2444
3ffc
0000
1ff8
1008
1ff8
1008
1ff8
0100
ffff
0100
0100
ENDCHAR
STARTCHAR ch-390
ENCODING 390
SWIDTH 1000 0
DWIDTH 16 0
BBX 16 16 0 -2
BITMAP
ffff
0440
7ffe
4442
7ffe
1100
33ff
6684
d0fc
3084
60fc
e040
20fe
2384
2078
23cf
ENDCHAR
STARTCHAR ch-391
ENCODING 391
SWIDTH 1000 0
DWIDTH 16 0
BBX 16 16 0 -2
BITMAP
ffff
0440
7ffe
4442
7ffe
2200
ffbe
2222
3e22
083e
7f22
4922
7f3e
0822
ffa2
0846
ENDCHAR
STARTCHAR ch-392
ENCODING 392
SWIDTH 1000 0
DWIDTH 16 0
BBX 16 16 0 -2
BITMAP
ffff
0440
7ffe
4442
7ffe
0810
3e10
223f
3e22
2266
ff94
101c
1e08
321c
6236
ce63
ENDCHAR
STARTCHAR ch-394
ENCODING 394
SWIDTH 1000 0
DWIDTH 16 0
BBX 16 16 0 -2
BITMAP
ffff
0440
7ffe
4442
7ffe
2800
feff
2888
38fe
1088
7cfe
5488
7cff
1001
fd55
1103
ENDCHAR
STARTCHAR ch-395
ENCODING 395
SWIDTH 1000 0
DWIDTH 16 0
BBX 16 16 0 -2
BITMAP
0000
1ff8
1008
1008
1ff8
1008
1008
1ff8
1008
1008
1ff8
0420
0420
0c21
1833
f01e
ENDCHAR
STARTCHAR ch-399
ENCODING 399
SWIDTH 1000 0
DWIDTH 16 0
BBX 16 16 0 -2
BITMAP
1000
10fe
1082
fe82
10fe
1082
1082
fefe
1082
1082
38fe
2c48
6648
40c9
c189
0307
ENDCHAR
STARTCHAR ch-403
ENCODING 403
SWIDTH 1000 0
DWIDTH 16 0
BBX 16 16 0 -2
BITMAP
000c
00f8
1f88
310c
6086
dffb
1008
1ff8
1008
1ff8
1008
1ff8
0420
0c21
1833
f01e
ENDCHAR
STARTCHAR ch-406
ENCODING 406
SWIDTH 1000 0
DWIDTH 16 0
BBX 16 16 0 -2
BITMAP
1000
10fe
1082
fc82
04fe
0c82
0882
18fe
3082
7c82
d6fe
1048
1048
1049
10c9
1187
ENDCHAR
STARTCHAR ch-407
ENCODING 407
SWIDTH 1000 0
DWIDTH 16 0
BBX 16 16 0 -2
BITMAP
0000
fe7e
0242
0242
7a7e
0242
0242
7a7e
4a42
4a42
4a7e
7a24
0224
0225
0265
0ec3
ENDCHAR
STARTCHAR ch-408
ENCODING 408
SWIDTH 1000 0
DWIDTH 16 0
BBX 16 16 0 -2
BITMAP
2000
20fe
2082
3e82
20fe
2082
2082
20fe
fc82
8482
84fe
8448
8448
8449
fcc9
0387
ENDCHAR
STARTCHAR ch-410
ENCODING 410
SWIDTH 1000 0
DWIDTH 16 0
BBX 16 16 0 -2
BITMAP
2204
330c
1108
7ffe
4002
5ffa
1008
1ff8
1008
1ff8
1008
1ff8
0420
0c21
3833
e01e
ENDCHAR
STARTCHAR ch-417
ENCODING 417
SWIDTH 1000 0
DWIDTH 16 0
BBX 16 16 0 -2
BITMAP
0000
fefe
1082
1082
54fe
5482
5482
bafe
9282
1082
10fe
1e48
7048
c0c9
0189
0307
ENDCHAR
STARTCHAR ch-422
ENCODING 422
SWIDTH 1000 0
DWIDTH 16 0
BBX 16 16 0 -2
BITMAP
0800
1c7e
3642
6342
c1fe
3e42
0042
f17e
9542
f542
957e
f528
9128
9129
9369
b0c7
ENDCHAR
STARTCHAR ch-423
ENCODING 423
SWIDTH 1000 0
DWIDTH 16 0
BBX 16 16 0 -2
BITMAP
7f20
483f
7f40
4100
7f3e
4800
7ff8
1008
1ff8
1008
1ff8
1008
1ff8
0421
1c23
f01e
ENDCHAR
STARTCHAR ch-425
ENCODING 425
SWIDTH 1000 0
DWIDTH 16 0
BBX 16 16 0 -2
BITMAP
1100
117e
7f42
1242
167e
1442
ff42
087e
3e42
2242
627e
be28
2228
2229
3e69
00c7
ENDCHAR
STARTCHAR ch-426
ENCODING 426
SWIDTH 1000 0
DWIDTH 16 0
BBX 16 16 0 -2
BITMAP
0800
087e
ff42
4242
667e
2442
ff42
087e
0842
ff42
287e
2c28
6a28
4969
c849
08c7
ENDCHAR
STARTCHAR ch-428
ENCODING 428
SWIDTH 1000 0
DWIDTH 16 0
BBX 16 16 0 -2
BITMAP
1000
527e
5242
7e42
007e
ff42
0042
7e7e
4242
7e42
007e
4228
6628
2429
3e69
e0c7
ENDCHAR
STARTCHAR ch-431
ENCODING 431
SWIDTH 1000 0
DWIDTH 16 0
BBX 16 16 0 -2
BITMAP
2200
7f3e
2222
7f22
223e
ffa2
0822
7f3e
4922
7f22
493e
4914
ff94
4115
4135
4363
ENDCHAR
STARTCHAR ch-434
ENCODING 434
SWIDTH 1000 0
DWIDTH 16 0
BBX 16 16 0 -2
BITMAP
2200
227e
ffc2
2242
007e
7f42
4942
7f7e
0842
7f42
087e
7f28
0828
0f29
3869
e0c7
ENDCHAR
STARTCHAR ch-435
ENCODING 435
SWIDTH 1000 0
DWIDTH 16 0
BBX 16 16 0 -2
BITMAP
2000
20fe
7e82
d082
10fe
ff82
2482
28fe
7e82
c882
7efe
4828
7e68
4849
7ec9
0187
ENDCHAR
STARTCHAR ch-442
ENCODING 442
SWIDTH 1000 0
DWIDTH 16 0
BBX 16 16 0 -2
BITMAP
3a5c
2184
3a5c
2184
3a5c
2004
7ffe
4812
4ff2
0810
0ff0
0810
0ff0
0421
1c23
f01e
ENDCHAR
STARTCHAR ch-445
ENCODING 445
SWIDTH 1000 0
DWIDTH 16 0
BBX 16 16 0 -2
BITMAP
0020
7f3f
4840
7f3e
4100
7f7f
4855
7f7f
0000
1ff8
1008
1ff8
1008
1ff9
0421
f83f
ENDCHAR
STARTCHAR ch-447
ENCODING 447
SWIDTH 1000 0
DWIDTH 16 0
BBX 16 16 0 -2
BITMAP
0800
ffbe
0822
7f22
003e
ffa2
a4a2
ffbe
4122
7f22
413e
7f14
4114
7f15
2235
c1a3
ENDCHAR
STARTCHAR ch-448
ENCODING 448
SWIDTH 1000 0
DWIDTH 16 0
BBX 16 16 0 -2
BITMAP
2200
ffbe
2222
7722
553e
7722
0022
243e
7fa2
c822
7f3e
4814
7f14
4815
7fb5
0063
ENDCHAR
STARTCHAR ch-466
ENCODING 466
SWIDTH 1000 0
DWIDTH 16 0
BBX 16 16 0 -2
BITMAP
0400
0ff0
1820
3040
dffc
1084
1084
1ffc
1084
1084
1ffc
1004
3004
2004
6004
c01c
ENDCHAR
STARTCHAR ch-474
ENCODING 474
SWIDTH 1000 0
DWIDTH 16 0
BBX 16 16 0 -2
BITMAP
2006
3c1c
64f4
4884
fca4
54a4
54a4
7ca4
54a4
54a4
7ca4
44a6
44aa
44ba
c56b
8d01
ENDCHAR
STARTCHAR ch-476
ENCODING 476
SWIDTH 1000 0
DWIDTH 16 0
BBX 16 16 0 -2
BITMAP
0840
284c
2f78
2840
2841
3f63
e43e
0fc0
1880
7ffc
1084
1ffc
1084
1ffc
3004
601c
ENDCHAR
STARTCHAR ch-477
ENCODING 477
SWIDTH 1000 0
DWIDTH 16 0
BBX 16 16 0 -2
BITMAP
2002
3c0e
6478
4848
fe48
5248
527f
7e48
5248
5248
7e48
426c
42c4
4205
c2f7
8e02
ENDCHAR
STARTCHAR ch-483
ENCODING 483
SWIDTH 1000 0
DWIDTH 16 0
BBX 16 16 0 -2
BITMAP
2000
3efe
6222
4422
ff62
49ce
4900
7f28
4928
497e
7f48
4108
41ff
4108
c108
8708
ENDCHAR
STARTCHAR ch-486
ENCODING 486
SWIDTH 1000 0
DWIDTH 16 0
BBX 16 16 0 -2
BITMAP
2008
3e08
6208
447f
ff49
4949
4949
7f49
4949
497f
7f08
4108
410a
410a
c11f
8771
ENDCHAR
STARTCHAR ch-487
ENCODING 487
SWIDTH 1000 0
DWIDTH 16 0
BBX 16 16 0 -2
BITMAP
2082
3cc6
6444
48fe
fe10
5210
5210
7efe
5210
5210
7e10
43ff
4210
4210
c210
8e10
ENDCHAR
STARTCHAR ch-500
ENCODING 500
SWIDTH 1000 0
DWIDTH 16 0
BBX 16 16 0 -2
BITMAP
2040
3cff
6580
487c
fe44
527c
5244
7e7c
5200
53ff
7e40
42ff
43a9
4249
c293
8e26
ENDCHAR
STARTCHAR ch-504
ENCODING 504
SWIDTH 1000 0
DWIDTH 16 0
BBX 16 16 0 -2
BITMAP
2000
3dfe
6552
4952
fdfe
5480
55ff
7f21
54f9
54a9
7cf9
4421
4429
447b
c5ca
8c06
ENDCHAR
ENDFONT
